<?xml version="1.0" encoding="utf-8"?>
<!-- Generator: Adobe Illustrator 16.0.0, SVG Export Plug-In . SVG Version: 6.00 Build 0)  -->
<!DOCTYPE svg PUBLIC "-//W3C//DTD SVG 1.1//EN" "http://www.w3.org/Graphics/SVG/1.1/DTD/svg11.dtd">
<svg version="1.1" id="Layer_1" xmlns="http://www.w3.org/2000/svg" xmlns:xlink="http://www.w3.org/1999/xlink" x="0px" y="0px"
	 width="60px" height="60px" viewBox="0 0 60 60" enable-background="new 0 0 60 60" xml:space="preserve">
<path fill="#BAD6B8" d="M38.286,8.251l-0.737,2.742c1.744,0.21,3.143,1.582,3.395,3.313c0.072-0.1,0.127-0.214,0.16-0.34
	l1.246-4.629c0.148-0.559-0.186-1.137-0.744-1.287l-2.03-0.542C39.016,7.358,38.436,7.693,38.286,8.251z"/>
<path fill="#BAD6B8" d="M17.743,8.251l0.737,2.742c-1.743,0.21-3.142,1.582-3.394,3.313c-0.072-0.1-0.127-0.214-0.161-0.34
	l-1.245-4.63c-0.15-0.559,0.184-1.137,0.743-1.287l2.031-0.542C17.013,7.358,17.592,7.693,17.743,8.251z"/>
<path fill="#BAD6B8" d="M19.368,10.965H36.66c2.378,0,4.322,1.945,4.322,4.323v37.04c0,0.001,0,0.003-0.002,0.003H15.045V15.288
	C15.045,12.91,16.991,10.965,19.368,10.965z"/>
<path fill="#88AD86" d="M37.881,11.142c1.788,0.53,3.104,2.192,3.104,4.146v37.04c0,0.001-0.002,0.003-0.004,0.003h-2.926
	c0,0,0.004-36.707,0.004-39.969C38.059,11.938,37.996,11.529,37.881,11.142z"/>
<path fill="#BAD6B8" d="M18.946,10.965h18.136c2.146,0,3.9,1.755,3.9,3.901v9.114c0,2.165-1.771,3.937-3.937,3.937H18.98
	c-2.165,0-3.935-1.771-3.935-3.935v-9.115C15.045,12.72,16.801,10.965,18.946,10.965z"/>
<path fill="#88AD86" d="M34.156,10.965h2.926c2.146,0,3.9,1.755,3.9,3.901v9.114c0,2.165-1.771,3.937-3.937,3.937H34.12
	c2.165,0,3.937-1.771,3.937-3.937v-9.114C38.059,12.72,36.303,10.965,34.156,10.965z"/>
<path fill="#BAD6B8" d="M10.397,34.29h2.958c0.93,0,1.69,0.76,1.69,1.688v16.353h-4.648c-0.93,0-1.69-0.761-1.69-1.69V35.979
	C8.707,35.05,9.467,34.29,10.397,34.29z"/>
<path fill="#BAD6B8" d="M23.362,18.27H20.44c-0.27,0-0.49,0.22-0.49,0.49v1.361c0,0.27,0.22,0.489,0.49,0.489h2.922
	c0.269,0,0.489-0.22,0.489-0.489V18.76C23.852,18.49,23.631,18.27,23.362,18.27z"/>
<path fill="#BAD6B8" d="M35.588,18.27h-2.922c-0.27,0-0.489,0.22-0.489,0.49v1.361c0,0.27,0.222,0.489,0.489,0.489h2.922
	c0.27,0,0.49-0.22,0.49-0.489V18.76C36.078,18.49,35.857,18.27,35.588,18.27z"/>
<path fill="#BAD6B8" d="M23.362,42.532H20.44c-0.27,0-0.49,0.22-0.49,0.489v1.361c0,0.27,0.22,0.489,0.49,0.489h2.922
	c0.269,0,0.489-0.222,0.489-0.489v-1.361C23.852,42.752,23.631,42.532,23.362,42.532z"/>
<path fill="#BAD6B8" d="M35.588,42.532h-2.922c-0.27,0-0.489,0.22-0.489,0.489v1.361c0,0.27,0.222,0.489,0.489,0.489h2.922
	c0.27,0,0.49-0.222,0.49-0.489v-1.361C36.078,42.752,35.857,42.532,35.588,42.532z"/>
<path fill="#BAD6B8" d="M23.362,30.965H20.44c-0.27,0-0.49,0.221-0.49,0.49v1.361c0,0.27,0.22,0.488,0.49,0.488h2.922
	c0.269,0,0.489-0.22,0.489-0.488v-1.361C23.852,31.186,23.631,30.965,23.362,30.965z"/>
<path fill="#BAD6B8" d="M35.588,30.965h-2.922c-0.27,0-0.489,0.221-0.489,0.49v1.361c0,0.27,0.222,0.488,0.489,0.488h2.922
	c0.27,0,0.49-0.22,0.49-0.488v-1.361C36.078,31.186,35.857,30.965,35.588,30.965z"/>
<path fill="#BAD6B8" d="M45.631,34.29h-2.957c-0.93,0-1.689,0.76-1.689,1.688v16.353h4.646c0.93,0,1.691-0.761,1.691-1.69V35.979
	C47.322,35.05,46.561,34.29,45.631,34.29z"/>
<g>
	<path fill="#263357" d="M32.029,12.73h-1.016c-1.042,0-1.042,1.577,0,1.577h1.016c0.436,0,0.789-0.353,0.789-0.789
		C32.818,13.083,32.465,12.73,32.029,12.73z"/>
	<path fill="#263357" d="M26.48,12.73h-1.016c-1.042,0-1.043,1.577,0,1.577h1.016C27.521,14.307,27.523,12.73,26.48,12.73z"/>
	<path fill="#263357" d="M20.931,12.73h-1.015c-1.042,0-1.043,1.577,0,1.577h1.015c0.436,0,0.789-0.353,0.789-0.789
		C21.719,13.083,21.366,12.73,20.931,12.73z"/>
	<path fill="#263357" d="M37.579,12.73h-1.015c-1.043,0-1.043,1.577,0,1.577h1.015C38.621,14.307,38.622,12.73,37.579,12.73z"/>
	<path fill="#263357" d="M11.479,48.773v1.016c0,1.042,1.577,1.043,1.577,0v-1.016C13.056,47.732,11.479,47.73,11.479,48.773z"/>
	<path fill="#263357" d="M11.479,44.793v1.016c0,1.043,1.577,1.043,1.577,0v-1.016C13.056,43.751,11.479,43.75,11.479,44.793z"/>
	<path fill="#263357" d="M11.479,40.813v1.016c0,1.042,1.577,1.043,1.577,0v-1.016C13.056,39.771,11.479,39.77,11.479,40.813z"/>
	<path fill="#263357" d="M46.365,33.501c-3.211,0-3.292-0.051-3.86,0.173c0-20.442,0.011-18.822-0.021-19.196
		c0.115-0.245,0.058-0.098,1.357-4.937c0.266-0.984-0.324-1.992-1.3-2.253l-2.03-0.542c-0.98-0.262-1.99,0.322-2.255,1.301
		l-0.571,2.13c-3.858,0-14.019,0-17.876,0l-0.572-2.13c-0.263-0.979-1.275-1.563-2.253-1.301c-2.09,0.559-2.667,0.568-3.148,1.4
		c-0.494,0.856-0.274,1.06,1.061,6.024c0.028,0.107,0.066,0.21,0.113,0.309c-0.029,0.354-0.02-0.992-0.02,19.195
		c-0.568-0.223-0.645-0.173-3.86-0.173c-1.367,0-2.479,1.112-2.479,2.479v14.66c0,1.366,1.112,2.479,2.479,2.479
		c4.139,0,31.081,0,35.235,0c1.365,0,2.479-1.112,2.479-2.479V35.979C48.844,34.613,47.73,33.501,46.365,33.501z M33.698,19.822
		v-0.764h2.323v0.764H33.698z M36.32,21.399c0.705,0,1.279-0.573,1.279-1.278v-1.362c0-0.705-0.574-1.278-1.279-1.278h-2.922
		c-0.703,0-1.277,0.573-1.277,1.278v1.362c0,0.705,0.574,1.278,1.277,1.278h0.674v5.729H23.423v-5.729h0.672
		c0.705,0,1.278-0.573,1.278-1.278v-1.362c0-0.705-0.573-1.278-1.278-1.278h-2.922c-0.705,0-1.278,0.573-1.278,1.278v1.362
		c0,0.705,0.573,1.278,1.278,1.278h0.672v5.729h-2.132c-1.735,0-3.146-1.412-3.146-3.146v-8.693c0-1.949,1.585-3.534,3.535-3.534
		h17.292c1.947,0,3.533,1.585,3.533,3.534v8.692c0,1.736-1.412,3.148-3.148,3.148h-2.131V21.4L36.32,21.399L36.32,21.399z
		 M21.472,19.822v-0.764h2.324v0.764H21.472z M40.104,8.269l2.033,0.542c0.359,0.098,0.191,0.29-0.594,3.213
		c-0.598-0.782-1.432-1.343-2.286-1.621C39.771,8.487,39.76,8.179,40.104,8.269z M15.952,12.024l-0.777-2.893
		c-0.024-0.089,0.006-0.162,0.027-0.197c0.021-0.035,0.068-0.098,0.158-0.122l2.031-0.542c0.139-0.037,0.287,0.049,0.324,0.187
		l0.523,1.948C17.371,10.685,16.542,11.253,15.952,12.024z M14.99,51.542h-3.86c-0.497,0-0.902-0.403-0.902-0.901V35.979
		c0-0.496,0.405-0.9,0.902-0.9h2.958c0.497,0,0.902,0.404,0.902,0.9V51.542z M40.928,51.542H16.567c0-3.754,0-20.81,0-24.048
		c1.607,1.441,3.129,1.21,5.279,1.21v1.472h-0.672c-0.705,0-1.278,0.574-1.278,1.279v1.361c0,0.703,0.573,1.276,1.278,1.276h0.672
		v7.65h-0.672c-0.705,0-1.278,0.573-1.278,1.276v1.361c0,0.705,0.573,1.278,1.278,1.278h2.922c0.705,0,1.278-0.573,1.278-1.278
		V43.02c0-0.703-0.573-1.276-1.278-1.276h-0.672v-7.65h0.672c0.705,0,1.278-0.573,1.278-1.276v-1.361
		c0-0.705-0.573-1.279-1.278-1.279h-0.672v-1.472h10.649v1.472H33.4c-0.705,0-1.278,0.574-1.278,1.279v1.361
		c0,0.703,0.573,1.276,1.278,1.276h0.673v7.65H33.4c-0.705,0-1.278,0.573-1.278,1.276v1.361c0,0.705,0.573,1.278,1.278,1.278h2.922
		c0.703,0,1.277-0.573,1.277-1.278V43.02c0-0.703-0.574-1.276-1.277-1.276h-0.674v-7.65h0.674c0.703,0,1.277-0.573,1.277-1.276
		v-1.361c0-0.705-0.574-1.279-1.277-1.279h-0.674v-1.472c2.152,0,3.672,0.23,5.279-1.211C40.928,30.734,40.928,47.787,40.928,51.542
		z M21.472,32.518v-0.764h2.324v0.764H21.472z M23.796,43.32v0.764h-2.324V43.32H23.796z M33.698,32.518v-0.764h2.323v0.764H33.698z
		 M36.021,43.32v0.764h-2.323V43.32H36.021z M47.268,50.641c0,0.498-0.406,0.901-0.901,0.901h-3.86V35.979
		c0-0.496,0.404-0.9,0.901-0.9h2.959c0.495,0,0.901,0.404,0.901,0.9V50.641z"/>
	<path fill="#263357" d="M44.438,48.773v1.016c0,1.042,1.578,1.043,1.578,0v-1.016C46.016,47.732,44.438,47.73,44.438,48.773z"/>
	<path fill="#263357" d="M44.438,44.793v1.016c0,1.043,1.578,1.043,1.578,0v-1.016C46.016,43.751,44.438,43.75,44.438,44.793z"/>
	<path fill="#263357" d="M44.438,40.813v1.016c0,1.042,1.578,1.043,1.578,0v-1.016C46.016,39.771,44.438,39.77,44.438,40.813z"/>
	<path fill="#263357" d="M32.029,49h-1.016c-1.042,0-1.042,1.577,0,1.577h1.016c0.436,0,0.789-0.353,0.789-0.788
		S32.465,49,32.029,49z"/>
	<path fill="#263357" d="M26.48,49h-1.016c-1.042,0-1.043,1.577,0,1.577h1.016c0.435,0,0.788-0.353,0.788-0.788S26.916,49,26.48,49z
		"/>
	<path fill="#263357" d="M20.931,49h-1.015c-1.042,0-1.043,1.577,0,1.577h1.015c0.436,0,0.789-0.353,0.789-0.788
		S21.366,49,20.931,49z"/>
	<path fill="#263357" d="M37.579,49h-1.015c-1.043,0-1.043,1.577,0,1.577h1.015C38.621,50.577,38.622,49,37.579,49z"/>
	<path fill="#263357" d="M29.723,24.583h-1.951c-1.041,0-1.042,1.577,0,1.577h1.951c0.436,0,0.789-0.353,0.789-0.789
		S30.158,24.583,29.723,24.583z"/>
	<path fill="#263357" d="M46.016,28.207V13.519c0-1.042-1.576-1.043-1.576,0v14.688C44.438,29.249,46.016,29.25,46.016,28.207z"/>
	<path fill="#263357" d="M46.016,31.555v-1.016c0-1.042-1.576-1.042-1.576,0v1.016C44.438,32.598,46.016,32.598,46.016,31.555z"/>
	<path fill="#263357" d="M11.479,36.831v1.015c0,1.043,1.577,1.043,1.577,0v-1.015C13.056,35.789,11.479,35.788,11.479,36.831z"/>
	<path fill="#263357" d="M44.438,36.831v1.015c0,1.043,1.578,1.043,1.578,0v-1.015C46.016,35.789,44.438,35.788,44.438,36.831z"/>
</g>
</svg>
