<?xml version="1.0" encoding="utf-8"?>
<!-- Generator: Adobe Illustrator 16.0.0, SVG Export Plug-In . SVG Version: 6.00 Build 0)  -->
<!DOCTYPE svg PUBLIC "-//W3C//DTD SVG 1.1//EN" "http://www.w3.org/Graphics/SVG/1.1/DTD/svg11.dtd">
<svg version="1.1" id="Layer_1" xmlns="http://www.w3.org/2000/svg" xmlns:xlink="http://www.w3.org/1999/xlink" x="0px" y="0px"
	 width="60px" height="60px" viewBox="0 0 60 60" enable-background="new 0 0 60 60" xml:space="preserve">
<g>
	<path fill="#FFFFFF" d="M13.266,43.482l14.574,2.271l-8.118,1.267l-6.746-1.212c-0.645-0.116-1.132-0.61-1.069-1.123l0.059-0.465
		C12.029,43.708,12.615,43.38,13.266,43.482L13.266,43.482z M35.958,47.021l2.313,0.36c0.651,0.104,1.133,0.612,1.068,1.12
		l-0.13,1.049c-0.063,0.508-0.657,0.854-1.301,0.737L27.84,48.479L35.958,47.021z"/>
	<path fill="#FFFFFF" d="M42.424,43.48l-25.005,3.897c-0.652,0.103-1.132,0.615-1.07,1.123l0.131,1.046
		c0.063,0.508,0.655,0.854,1.301,0.738l24.931-4.479c0.647-0.116,1.135-0.611,1.071-1.124l-0.06-0.464
		C43.663,43.708,43.078,43.378,42.424,43.48z"/>
	<path fill="#BAD6B8" d="M28.011,45.246C17.402,45.246,8.8,38.878,8.8,31.021c0-4.483,3.693-9.034,6.219-13.08l2.992,4.779
		l8.154-13.027l6.763,10.804l4.847-7.741c2.181,3.554,5.813,8.354,7.867,12.901C50.047,35.408,42.492,45.246,28.011,45.246z"/>
	<path fill="#88AD86" d="M28.011,45.246h-0.054c4.48-0.003,7.89-1.516,9.838-3.78c5.198-3.75,7.031-9.794,4.315-15.809
		c-1.557-3.447-4.02-7.039-6.072-10.125l1.737-2.776c2.182,3.554,5.813,8.354,7.868,12.901
		C50.047,35.408,42.492,45.246,28.011,45.246z"/>
	<path fill="#EBF2FF" d="M27.949,45.246c-6.568,0-11.894-3.917-11.894-8.749c0-2.756,2.285-5.557,3.85-8.044l1.853,2.938
		l5.048-8.011l4.188,6.644l2.999-4.76c1.351,2.186,3.599,5.137,4.87,7.934C41.588,39.197,36.912,45.246,27.949,45.246z"/>
	<path fill="#263357" d="M49.687,24.13c-0.269-0.597-0.569-1.214-0.893-1.833c-0.18-0.35-0.611-0.486-0.962-0.306
		c-0.351,0.183-0.486,0.613-0.305,0.963c0.311,0.597,0.599,1.191,0.858,1.765c2.481,5.497,1.785,11.208-1.907,15.666
		c-0.251,0.306-0.209,0.753,0.094,1.005c0.305,0.253,0.755,0.21,1.005-0.094C51.573,36.473,52.361,30.054,49.687,24.13z"/>
	<path fill="#263357" d="M46.956,25.363c-2.083-4.613-5.735-9.437-7.908-12.979c-0.288-0.47-0.948-0.43-1.213-0.006l-4.242,6.774
		C26.936,8.519,27.383,8.979,26.83,8.979c-0.247,0-0.475,0.127-0.605,0.336l-7.55,12.06l-2.388-3.813
		c-0.131-0.208-0.359-0.335-0.605-0.335c-0.238-0.01-0.475,0.127-0.605,0.336c-2.502,4.009-6.327,8.738-6.327,13.458
		c0,5.075,3.396,9.566,8.573,12.268l-3.283-0.512c-1.049-0.163-2.003,0.433-2.119,1.355l-0.058,0.464
		c-0.111,0.886,0.615,1.727,1.652,1.913l3.434,0.618c-0.45,0.369-0.71,0.908-0.642,1.46c0.128,1.03,0.086,1.586,0.75,2.073
		c0.877,0.645,0.776,0.46,11.449-1.458c10.602,1.904,10.006,1.82,10.317,1.82c0.909,0,1.658-0.586,1.759-1.387
		c0.127-1.022,0.376-1.782-0.514-2.509l3.438-0.618c1.037-0.187,1.763-1.027,1.65-1.913l-0.058-0.465
		c-0.114-0.904-1.049-1.521-2.12-1.355l-2.23,0.349C47.22,39.481,50.199,32.545,46.956,25.363z M17.433,36.497
		c0-2.193,1.67-4.518,3.127-6.719l1.257,1.994c0.28,0.444,0.929,0.444,1.209,0l4.444-7.052l3.583,5.686
		c0.133,0.206,0.36,0.333,0.604,0.333c0.246,0,0.474-0.127,0.604-0.333l2.402-3.81c3.234,4.93,6.753,9.106,3.863,13.592
		C33.819,47.492,17.433,45.098,17.433,36.497z M13.336,44.31c0.014-0.103,0.362-0.142,0.484-0.122l0,0l10.049,1.567l-3.476,0.543
		C12.465,44.87,13.225,45.209,13.336,44.31z M38.824,48.084c0.318,0.051,0.479,0.27,0.471,0.328l-0.131,1.049
		c-0.046,0.312-0.973,0.03-6.624-0.983l4.091-0.736L38.824,48.084z M43.198,44.187c0.287-0.046,0.477,0.075,0.483,0.121l0.057,0.464
		c0.01,0.06-0.152,0.271-0.485,0.331c-25.548,4.591-25.352,4.668-25.399,4.355l-0.13-1.046
		C17.679,48.053,17.429,48.203,43.198,44.187L43.198,44.187z M38.157,42.792c2.872-2.604,3.654-6.29,2.019-9.888
		c-0.907-1.995-2.281-4.042-3.49-5.845c-0.523-0.778-1.017-1.513-1.422-2.168c-0.13-0.21-0.359-0.338-0.606-0.339
		c0,0-0.001,0-0.002,0c-0.246,0-0.474,0.125-0.604,0.333l-2.398,3.802l-3.58-5.686c-0.131-0.208-0.359-0.334-0.604-0.334
		s-0.473,0.126-0.604,0.334l-4.445,7.053c-1.312-2.082-1.341-2.314-1.852-2.314l0,0c-0.502,0.001-0.547,0.274-1.521,1.734
		c-1.427,2.138-3.042,4.563-3.042,7.022c0,2.252,1.055,4.322,2.811,5.947c-5.186-2.394-8.639-6.618-8.639-11.422
		c0-3.91,3.036-7.95,5.499-11.743l2.394,3.821c0.279,0.446,0.931,0.446,1.21,0l7.55-12.06l6.16,9.838
		c0.129,0.208,0.357,0.334,0.604,0.334c0.245,0,0.474-0.126,0.605-0.334l4.242-6.776c2.199,3.427,5.371,7.767,7.216,11.851
		C48.86,33.048,45.345,39.794,38.157,42.792z"/>
	<path fill="#263357" d="M46.625,21.323c0.132,0.229,0.371,0.358,0.618,0.358c0.122,0,0.244-0.032,0.356-0.097
		c0.341-0.197,0.458-0.633,0.263-0.974l-0.439-0.763c-0.198-0.341-0.636-0.458-0.976-0.262c-0.342,0.198-0.46,0.634-0.263,0.976
		L46.625,21.323z"/>
</g>
</svg>
