<?xml version="1.0" encoding="utf-8"?>
<!-- Generator: Adobe Illustrator 16.0.0, SVG Export Plug-In . SVG Version: 6.00 Build 0)  -->
<!DOCTYPE svg PUBLIC "-//W3C//DTD SVG 1.1//EN" "http://www.w3.org/Graphics/SVG/1.1/DTD/svg11.dtd">
<svg version="1.1" id="Layer_1" xmlns="http://www.w3.org/2000/svg" xmlns:xlink="http://www.w3.org/1999/xlink" x="0px" y="0px"
	 width="60px" height="60px" viewBox="0 0 60 60" enable-background="new 0 0 60 60" xml:space="preserve">
<g>
	<path fill-rule="evenodd" clip-rule="evenodd" fill="#BAD6B8" d="M47.569,41.307l4.458,6.346c0.202,0.284,0.231,0.644,0.082,0.963
		c-0.147,0.32-0.434,0.511-0.769,0.511H40.138c0.297,0,0.551-0.17,0.684-0.454s0.105-0.604-0.072-0.858l-3.97-5.65h1.903
		c0.256,0,0.477-0.146,0.591-0.391c0.114-0.247,0.092-0.522-0.063-0.742l-4.354-6.199h1.725c0.198,0,0.367-0.111,0.455-0.301
		c0.089-0.19,0.07-0.403-0.049-0.572l-3.681-5.24l5.607-7.982c0.112-0.159,0.271-0.245,0.457-0.245c0.187,0,0.346,0.085,0.458,0.245
		l7.977,11.355c0.133,0.19,0.153,0.43,0.054,0.644c-0.099,0.213-0.29,0.338-0.512,0.338h-1.936l4.89,6.961
		c0.172,0.247,0.2,0.558,0.07,0.834c-0.129,0.274-0.375,0.439-0.663,0.439H47.569z"/>
	<path fill-rule="evenodd" clip-rule="evenodd" fill="#88AD86" d="M47.569,41.307l4.458,6.346c0.202,0.284,0.231,0.644,0.082,0.963
		c-0.147,0.32-0.434,0.511-0.769,0.511H27.402c-0.286,0-0.539-0.141-0.697-0.381h21.968c0.333,0,0.619-0.191,0.769-0.511
		c0.149-0.32,0.118-0.679-0.082-0.963l-4.458-6.347h2.138c0.289,0,0.534-0.164,0.663-0.439c0.129-0.276,0.104-0.587-0.07-0.834
		l-4.89-6.959h1.937c0.223,0,0.413-0.127,0.513-0.34c0.099-0.214,0.078-0.453-0.057-0.643l-6.964-9.916l0.743-1.059
		c0.112-0.159,0.271-0.245,0.457-0.245c0.187,0,0.346,0.085,0.458,0.245l7.977,11.355c0.133,0.19,0.153,0.43,0.054,0.644
		c-0.099,0.213-0.29,0.338-0.512,0.338h-1.936l4.89,6.961c0.172,0.247,0.2,0.558,0.07,0.834c-0.129,0.274-0.375,0.439-0.663,0.439
		H47.569z"/>
	<path fill-rule="evenodd" clip-rule="evenodd" fill="#BAD6B8" d="M36.779,42.163l3.97,5.65c0.178,0.254,0.205,0.574,0.072,0.858
		s-0.387,0.454-0.684,0.454h-10.52c0.223,0,0.413-0.127,0.512-0.34c0.1-0.214,0.08-0.453-0.055-0.644l-2.971-4.229h1.425
		c0.192,0,0.356-0.11,0.442-0.294c0.085-0.185,0.068-0.391-0.048-0.555l-3.259-4.642h1.29c0.148,0,0.275-0.084,0.342-0.226
		c0.065-0.143,0.052-0.301-0.038-0.429l-3.983-5.672l5.795-8.25c0.099-0.142,0.241-0.218,0.407-0.218s0.308,0.076,0.407,0.218
		l7.102,10.111c0.119,0.169,0.138,0.382,0.049,0.572c-0.088,0.189-0.257,0.301-0.455,0.301h-1.725l4.354,6.199
		c0.155,0.22,0.178,0.495,0.063,0.742c-0.114,0.244-0.335,0.391-0.591,0.391H36.779z"/>
	<path fill-rule="evenodd" clip-rule="evenodd" fill="#88AD86" d="M36.779,42.163l3.97,5.65c0.178,0.254,0.205,0.574,0.072,0.858
		s-0.387,0.454-0.684,0.454H18.82c-0.271,0-0.506-0.142-0.646-0.381h19.675c0.297,0,0.552-0.171,0.685-0.455
		s0.105-0.604-0.073-0.858l-3.969-5.65h1.903c0.258,0,0.477-0.146,0.591-0.391c0.115-0.247,0.091-0.521-0.063-0.742l-4.354-6.198
		h1.724c0.198,0,0.368-0.112,0.456-0.301c0.089-0.191,0.071-0.404-0.048-0.572l-6.231-8.872l0.603-0.859
		c0.099-0.142,0.241-0.218,0.407-0.218s0.308,0.076,0.407,0.218l7.102,10.111c0.119,0.169,0.138,0.382,0.049,0.572
		c-0.088,0.189-0.257,0.301-0.455,0.301h-1.725l4.354,6.199c0.155,0.22,0.178,0.495,0.063,0.742
		c-0.114,0.244-0.335,0.391-0.591,0.391H36.779z"/>
	<path fill-rule="evenodd" clip-rule="evenodd" fill="#BAD6B8" d="M27.104,43.913l2.971,4.229c0.135,0.19,0.154,0.43,0.055,0.644
		c-0.1,0.213-0.289,0.34-0.512,0.34H13.658c-0.223,0-0.413-0.127-0.513-0.34c-0.099-0.214-0.079-0.453,0.055-0.644l2.971-4.229
		h-1.425c-0.192,0-0.357-0.11-0.443-0.294c-0.086-0.185-0.067-0.391,0.047-0.555l3.26-4.642h-1.291
		c-0.149,0-0.275-0.084-0.341-0.226c-0.066-0.143-0.052-0.301,0.036-0.429l5.317-7.57c0.075-0.106,0.182-0.163,0.305-0.163
		c0.125,0,0.231,0.057,0.305,0.163l5.317,7.57c0.09,0.128,0.103,0.286,0.038,0.429c-0.067,0.142-0.194,0.226-0.342,0.226h-1.29
		l3.259,4.642c0.116,0.164,0.133,0.37,0.048,0.555c-0.086,0.184-0.25,0.294-0.442,0.294H27.104z"/>
	<path fill-rule="evenodd" clip-rule="evenodd" fill="#88AD86" d="M27.104,43.913l2.971,4.229c0.135,0.19,0.154,0.43,0.055,0.644
		c-0.1,0.213-0.289,0.34-0.512,0.34H13.658c-0.223,0-0.413-0.127-0.513-0.34c-0.006-0.014-0.012-0.028-0.018-0.041h14.203
		c0.222,0,0.412-0.128,0.512-0.341c0.099-0.213,0.079-0.452-0.056-0.644l-2.971-4.229h1.425c0.193,0,0.357-0.11,0.443-0.293
		c0.086-0.186,0.067-0.391-0.047-0.556l-3.261-4.641h1.291c0.148,0,0.276-0.084,0.341-0.227c0.066-0.142,0.052-0.301-0.036-0.428
		l-4.345-6.185l0.705-1.004c0.075-0.106,0.182-0.163,0.305-0.163c0.125,0,0.231,0.057,0.305,0.163l5.317,7.57
		c0.09,0.128,0.103,0.286,0.038,0.429c-0.067,0.142-0.194,0.226-0.342,0.226h-1.29l3.259,4.642c0.116,0.164,0.133,0.37,0.048,0.555
		c-0.086,0.184-0.25,0.294-0.442,0.294H27.104z"/>
	<path fill="#263357" d="M5.11,46.48c0.428,0,0.302,0.028,2.99-3.8c0.469-0.667-0.542-1.376-1.009-0.708L4.607,45.51
		C4.317,45.921,4.617,46.48,5.11,46.48z"/>
	<path fill="#263357" d="M7.032,38.001c0.441,0,0.253,0.097,3.592-4.656c0.468-0.667-0.541-1.377-1.009-0.709L6.528,37.03
		C6.24,37.441,6.539,38.001,7.032,38.001z"/>
	<path fill="#263357" d="M56.69,48.509h-3.33c0.178-0.879,0.041-0.791-4.029-6.587h0.95c0.525,0,0.994-0.305,1.223-0.795
		c0.223-0.479,0.176-1.019-0.125-1.447l-4.207-5.99h0.749c0.46,0,0.872-0.266,1.071-0.696c0.193-0.414,0.152-0.885-0.11-1.257
		l-7.975-11.355c-0.226-0.322-0.577-0.506-0.963-0.506c-0.385,0-0.734,0.185-0.961,0.506l-5.103,7.265l-2.917-4.153
		c-0.215-0.305-0.548-0.48-0.912-0.48c-0.365,0-0.698,0.175-0.911,0.48l-1.092,1.553l-5.53-7.873
		c-0.238-0.34-0.608-0.535-1.014-0.535s-0.775,0.195-1.013,0.534l-8.878,12.639c-0.276,0.394-0.319,0.891-0.115,1.329
		c0.403,0.866,1.169,0.735,2.097,0.735l-4.759,6.775C8.136,39.65,8.828,41.039,10,41.039h1.194c-4.607,6.558-4.785,6.472-4.532,7.47
		H3.31c-0.34,0-0.617,0.275-0.617,0.615c0,0.343,0.277,0.617,0.617,0.617h4.873h6.049c9.847,0,16.687,0,26.478,0h11.206h4.775
		c0.341,0,0.617-0.274,0.617-0.617C57.308,48.784,57.031,48.509,56.69,48.509z M7.923,47.84c5.311-7.56,5.247-7.236,5.004-7.702
		C12.7,39.7,12.487,39.805,10,39.805c-0.165,0-0.288-0.256-0.155-0.444c5.855-8.336,5.724-7.924,5.485-8.386
		c-0.225-0.431-0.454-0.332-2.698-0.329c-0.025-0.021-0.041-0.08-0.009-0.125l8.887-12.637l5.785,8.236l-3.446,4.906l-0.83-1.18
		c-0.189-0.27-0.485-0.425-0.809-0.425c-0.324,0-0.619,0.155-0.81,0.425l-5.318,7.571c-0.217,0.309-0.25,0.698-0.09,1.042
		c0.175,0.376,0.494,0.583,1.005,0.583l-2.579,3.671c-0.535,0.761-0.002,1.817,0.899,1.817h0.239
		c-2.487,3.543-2.517,3.451-2.517,3.98h-4.86C7.917,48.509,7.721,48.128,7.923,47.84z M17.25,44.267
		c0.287-0.408-0.007-0.971-0.504-0.971h-1.23c3.41-4.854,3.452-4.702,3.216-5.157c-0.107-0.203-0.317-0.332-0.547-0.332h-0.869
		l4.895-6.969c0.781,1.112,0.41,0.583,4.895,6.969h-0.868c-0.23,0-0.441,0.129-0.547,0.332c-0.106,0.204-0.089,0.451,0.043,0.64
		l3.173,4.518h-1.23c-0.23,0-0.441,0.127-0.548,0.333c-0.104,0.204-0.089,0.448,0.043,0.638l2.974,4.231
		c0.002,0.004,0.004,0.006,0.004,0.011H14.273C14.274,48.502,17.245,44.272,17.25,44.267z M28.864,44.528h0.238
		c0.431,0,0.814-0.249,1.002-0.648c0.179-0.388,0.141-0.823-0.103-1.171l-2.578-3.669h0.105c0.387,0,0.733-0.223,0.899-0.583
		c0.161-0.342,0.127-0.733-0.091-1.042l-3.735-5.318l5.449-7.757l6.937,9.876H35.43c-0.23,0-0.441,0.128-0.547,0.331
		c-0.238,0.458-0.258,0.212,4.396,6.836c0.026,0.042,0.029,0.083,0.009,0.128c-0.011,0.023-0.022,0.033-0.032,0.035h-1.903
		c-0.23,0-0.441,0.129-0.547,0.333c-0.107,0.204-0.09,0.45,0.043,0.638l3.968,5.65c0.104,0.147,0.007,0.342-0.107,0.342h-9.326
		C31.383,47.914,31.121,47.742,28.864,44.528z M42.08,48.509c0.004-0.026,0.013-0.153,0.011-0.235
		c-0.002-0.099-0.009-0.188-0.035-0.299c-0.011-0.053-0.043-0.153-0.078-0.236c-0.04-0.095-0.092-0.194-0.152-0.28l-3.287-4.678
		c0.633,0,1.459,0.131,1.867-0.748c0.209-0.449,0.164-0.956-0.117-1.357l-3.672-5.227h0.538c0.437,0,0.825-0.252,1.014-0.658
		c0.184-0.391,0.145-0.836-0.103-1.188l-3.431-4.884l5.31-7.561l7.93,11.289c0.002,0.003,0.004,0.005,0.004,0.01h-1.894
		c-0.23,0-0.439,0.128-0.546,0.332c-0.106,0.205-0.09,0.45,0.043,0.639l4.89,6.962c0.089,0.129,0.005,0.301-0.09,0.301
		c-2.231,0-2.461-0.097-2.686,0.333c-0.237,0.456-0.268,0.194,4.501,6.983c0.149,0.212,0.011,0.503-0.182,0.503H42.08z"/>
	<path fill="#263357" d="M41.216,18.944c0.58,0.249,1.186,0.367,1.78,0.367c1.758,0,3.435-1.029,4.172-2.744
		c0.983-2.297-0.083-4.966-2.379-5.951c-0.46-0.198-0.946-0.317-1.443-0.355c-0.264-0.019-0.509,0.13-0.613,0.372
		c-0.103,0.242-0.041,0.523,0.153,0.7c1.047,0.945,1.376,2.452,0.821,3.749c-0.558,1.297-1.876,2.097-3.283,1.99
		c-0.259-0.02-0.509,0.129-0.612,0.372c-0.104,0.242-0.043,0.523,0.152,0.7C40.334,18.477,40.754,18.747,41.216,18.944z
		 M44.84,15.568c0.49-1.145,0.479-2.408,0.028-3.509c1.271,0.871,1.797,2.552,1.165,4.021c-0.631,1.47-2.211,2.248-3.718,1.926
		C43.425,17.575,44.348,16.712,44.84,15.568z"/>
	<path fill="#263357" d="M27.927,18.639h5.129c1.507,0,2.733-1.227,2.733-2.734c0-1.507-1.227-2.734-2.733-2.734
		c-0.257,0-0.508,0.035-0.75,0.104c-0.565-0.516-1.302-0.805-2.079-0.805c-1.085,0-2.085,0.573-2.639,1.488
		c-1.138,0.165-2.015,1.146-2.015,2.328C25.574,17.583,26.63,18.639,27.927,18.639z M27.927,15.167l0.03,0
		c0.247,0.006,0.477-0.138,0.58-0.365c0.297-0.667,0.961-1.099,1.69-1.099c0.559,0,1.082,0.249,1.436,0.682
		c0.181,0.221,0.488,0.289,0.744,0.166c0.204-0.098,0.422-0.147,0.649-0.147c0.828,0,1.501,0.673,1.501,1.501
		c0,0.827-0.673,1.5-1.501,1.5h-5.129c-0.618,0-1.12-0.502-1.12-1.12C26.808,15.669,27.31,15.167,27.927,15.167z"/>
	<path fill="#263357" d="M49.432,20.534c-1.092,0.164-1.933,1.109-1.933,2.248c0,1.254,1.019,2.274,2.273,2.274h4.896
		c1.455,0,2.639-1.184,2.639-2.638c0-1.455-1.184-2.638-2.639-2.638c-0.242,0-0.48,0.032-0.708,0.096
		c-0.543-0.491-1.247-0.766-1.991-0.766C50.926,19.11,49.969,19.658,49.432,20.534z M50.38,21.376
		c0.278-0.627,0.903-1.032,1.59-1.032c0.525,0,1.017,0.233,1.348,0.641c0.182,0.221,0.488,0.289,0.744,0.166
		c0.19-0.091,0.395-0.137,0.607-0.137c0.774,0,1.404,0.63,1.404,1.405c0,0.774-0.63,1.404-1.404,1.404h-4.896
		c-0.574,0-1.042-0.467-1.042-1.041c0-0.573,0.468-1.041,1.042-1.041l0.028,0C50.053,21.748,50.279,21.604,50.38,21.376z"/>
	<path fill="#263357" d="M40.167,32.484h-0.828c-0.341,0-0.617,0.275-0.617,0.615c0,0.341,0.276,0.617,0.617,0.617h0.828
		c0.342,0,0.617-0.276,0.617-0.617C40.784,32.76,40.509,32.484,40.167,32.484z"/>
	<path fill="#263357" d="M43.568,32.484h-0.83c-0.341,0-0.615,0.275-0.615,0.615c0,0.341,0.274,0.617,0.615,0.617h0.83
		c0.34,0,0.617-0.276,0.617-0.617C44.186,32.76,43.908,32.484,43.568,32.484z"/>
	<path fill="#263357" d="M42.564,40.677h-0.828c-0.815,0-0.815,1.233,0,1.233h0.828c0.342,0,0.617-0.276,0.617-0.616
		C43.182,40.953,42.906,40.677,42.564,40.677z"/>
	<path fill="#263357" d="M45.966,40.677h-0.829c-0.814,0-0.816,1.233,0,1.233h0.829c0.34,0,0.616-0.276,0.616-0.616
		C46.582,40.953,46.306,40.677,45.966,40.677z"/>
	<path fill="#263357" d="M17.268,31.864h0.83c0.341,0,0.616-0.275,0.616-0.616c0-0.341-0.275-0.617-0.616-0.617h-0.83
		C16.454,30.631,16.453,31.864,17.268,31.864z"/>
	<path fill="#263357" d="M14.026,41.045h0.829c0.814,0,0.815-1.232,0-1.232h-0.829c-0.341,0-0.616,0.275-0.616,0.615
		S13.685,41.045,14.026,41.045z"/>
	<path fill="#263357" d="M31.87,41.624h-0.83c-0.813,0-0.814,1.234,0,1.234h0.83c0.341,0,0.617-0.276,0.617-0.617
		C32.487,41.901,32.211,41.624,31.87,41.624z"/>
	<path fill="#263357" d="M34.872,41.624h-0.828c-0.815,0-0.816,1.234,0,1.234h0.828c0.34,0,0.617-0.276,0.617-0.617
		C35.489,41.901,35.212,41.624,34.872,41.624z"/>
	<path fill="#263357" d="M29.354,34.171h-0.83c-0.813,0-0.815,1.234,0,1.234h0.83c0.34,0,0.616-0.276,0.616-0.617
		C29.97,34.448,29.694,34.171,29.354,34.171z"/>
	<path fill="#263357" d="M32.75,34.171h-0.831c-0.814,0-0.814,1.234,0,1.234h0.831c0.34,0,0.616-0.276,0.616-0.617
		C33.366,34.448,33.09,34.171,32.75,34.171z"/>
	<path fill="#263357" d="M22.626,37.793h-0.83c-0.814,0-0.815,1.234,0,1.234h0.83c0.34,0,0.616-0.276,0.616-0.617
		C23.243,38.07,22.967,37.793,22.626,37.793z"/>
	<path fill="#263357" d="M20.727,43.353h-0.831c-0.813,0-0.815,1.231,0,1.231h0.831c0.34,0,0.616-0.274,0.616-0.617
		C21.343,43.627,21.067,43.353,20.727,43.353z"/>
	<path fill="#263357" d="M24.526,43.353h-0.83c-0.814,0-0.815,1.231,0,1.231h0.83c0.34,0,0.615-0.274,0.615-0.617
		C25.142,43.627,24.867,43.353,24.526,43.353z"/>
</g>
</svg>
